<svg xmlns="http://www.w3.org/2000/svg" viewBox="0 0 473 473" class="pxl-icon">
    <path d="M403.581 69.3c-44.7-44.7-104-69.3-167.2-69.3s-122.5 24.6-167.2 69.3c-86.4 86.4-92.4 224.7-14.9 318-7.6 15.3-19.8 33.1-37.9 42-8.7 4.3-13.6 13.6-12.1 23.2s8.9 17.1 18.5 18.6c4.5.7 10.9 1.4 18.7 1.4 20.9 0 51.7-4.9 83.2-27.6 35.1 18.9 73.5 28.1 111.6 28.1 61.2 0 121.8-23.7 167.4-69.3 44.7-44.7 69.3-104 69.3-167.2s-24.7-122.5-69.4-167.2zm-19.1 315.3c-67.5 67.5-172 80.9-254.2 32.6-5.4-3.2-12.1-2.2-16.4 2.1-.4.2-.8.5-1.1.8-27.1 21-53.7 25.4-71.3 25.4h-.1c20.3-14.8 33.1-36.8 40.6-53.9 1.2-2.9 1.4-5.9.7-8.7-.3-2.7-1.4-5.4-3.3-7.6-73.2-82.7-69.4-208.7 8.8-286.9 81.7-81.7 214.6-81.7 296.2 0 81.8 81.7 81.8 214.5.1 296.2z"/>
    <circle cx="236.381" cy="236.5" r="16.6"/>
    <circle cx="321.981" cy="236.5" r="16.6"/>
    <circle cx="150.781" cy="236.5" r="16.6"/>
</svg>
