<svg xmlns="http://www.w3.org/2000/svg" viewBox="0 0 477.6 477.6" class="pxl-icon">
    <path d="M407.583 70c-45.1-45.1-105-70-168.8-70s-123.7 24.9-168.8 70c-87 87-93.3 226-15.8 320.2-10.7 21.9-23.3 36.5-37.6 43.5-8.7 4.3-13.6 13.7-12.2 23.3 1.5 9.7 8.9 17.2 18.6 18.7 5.3.8 11 1.3 16.9 1.3 29.3 0 60.1-10.1 85.8-27.8 34.6 18.6 73.5 28.4 113.1 28.4 63.8 0 123.7-24.8 168.8-69.9s69.9-105.1 69.9-168.8-24.8-123.8-69.9-168.9zm-19.1 318.5c-40 40-93.2 62-149.7 62-37.8 0-74.9-10.1-107.2-29.1-2.1-1.2-4.5-1.9-6.8-1.9-2.9 0-5.9 1-8.3 2.8-30.6 23.7-61.4 27.2-74.9 27.5 16.1-12 29.6-30.6 40.9-56.5 2.1-4.8 1.2-10.4-2.3-14.4-74-83.6-70.1-211 8.9-290 40-40 93.2-62 149.7-62s109.7 22 149.7 62c82.6 82.7 82.6 217.1 0 299.6z"/>
    <path d="M338.783 160h-200c-7.5 0-13.5 6-13.5 13.5s6 13.5 13.5 13.5h200c7.5 0 13.5-6 13.5-13.5s-6.1-13.5-13.5-13.5zM338.783 225.3h-200c-7.5 0-13.5 6-13.5 13.5s6 13.5 13.5 13.5h200c7.5 0 13.5-6 13.5-13.5s-6.1-13.5-13.5-13.5zM338.783 290.6h-200c-7.5 0-13.5 6-13.5 13.5s6 13.5 13.5 13.5h200c7.5 0 13.5-6 13.5-13.5s-6.1-13.5-13.5-13.5z"/>
</svg>
