<svg height="464pt" viewBox="-4 0 464 464" width="464pt" xmlns="http://www.w3.org/2000/svg" class="pxl-icon">
    <path d="M408 464H264l-24-320h192zm0 0" fill="#f05d46"/>
    <path d="M216 104h240v40H216zm0 0" fill="#dedede"/>
    <path d="M320 0h32v104h-32zm0 0" fill="#f05d46"/>
    <path d="M274.3 208.531l15.966-1.058 3.046 46.004-15.964 1.058zm0 0M272.02 176.566l15.957-1.14 1.144 16-15.957 1.14zm0 0" fill="#ff8b78"/>
    <path d="M430.2 168l1.8-24H240l1.8 24zm0 0M352 432v-32h-32c16.25-.098 29.848-12.363 31.613-28.52 1.77-16.156-8.855-31.07-24.703-34.68l1.09-.8h24c-.027-59.48-46.578-108.547-105.977-111.695L264 464h56c17.672 0 32-14.328 32-32zm0 0" fill="#d64d37"/>
    <path d="M0 400h320v32c0 17.672-14.328 32-32 32H32c-17.672 0-32-14.328-32-32zm0 0" fill="#f09e3e"/>
    <path d="M240 400v32c0 17.672-14.328 32-32 32h80c17.672 0 32-14.328 32-32v-32zm0 0" fill="#f09032"/>
    <path d="M112 224h96c61.855 0 112 50.145 112 112H0c0-61.855 50.145-112 112-112zm0 0" fill="#f09e3e"/>
    <path d="M208 224h-80c61.855 0 112 50.145 112 112h80c0-61.855-50.145-112-112-112zm0 0" fill="#f09032"/>
    <path d="M32 336h256c17.672 0 32 14.328 32 32s-14.328 32-32 32H32c-17.672 0-32-14.328-32-32s14.328-32 32-32zm0 0" fill="#8c563b"/>
    <path d="M315.559 352A31.847 31.847 0 0 0 288 336H32a31.847 31.847 0 0 0-27.559 16zm0 0" fill="#874e35"/>
    <path d="M112 336l96 64 88-64zm0 0" fill="#fc3"/>
    <g fill="#c96e23">
        <path d="M176 280h16v16h-16zm0 0M128 280h16v16h-16zm0 0M80 280h16v16H80zm0 0M200 248h16v16h-16zm0 0M152 248h16v16h-16zm0 0M104 248h16v16h-16zm0 0M224 280h16v16h-16zm0 0"/>
    </g>
    <path d="M272.625 353L296 336H112l25.504 17zm0 0" fill="#ffb60c"/>
</svg>
