<svg xmlns="http://www.w3.org/2000/svg" viewBox="0 0 485.5 485.5" class="pxl-icon">
    <path d="M422.1 126.2H126.4c-27.4 0-49.8-22.3-49.8-49.8 0-27.4 22.3-49.8 49.8-49.8h295.8c7.4 0 13.3-6 13.3-13.3 0-7.4-6-13.3-13.3-13.3H126.4C84.3 0 50 34.3 50 76.4v332.7c0 42.1 34.3 76.4 76.4 76.4h295.8c7.4 0 13.3-6 13.3-13.3V139.5c-.1-7.3-6-13.3-13.4-13.3zm-13.3 332.7H126.4c-27.4 0-49.8-22.3-49.8-49.8V134.4c13.4 11.5 30.8 18.5 49.8 18.5h282.4v306z"/>
    <path d="M130.6 64.3c-7.4 0-13.3 6-13.3 13.3s6 13.3 13.3 13.3h249.8c7.4 0 13.3-6 13.3-13.3s-6-13.3-13.3-13.3H130.6zM177.4 400.7c1.5.5 3 .8 4.5.8 5.5 0 10.6-3.4 12.5-8.8l16.2-45.3H273c.5 0 1.1 0 1.6-.1l16.2 45.4c1.9 5.4 7.1 8.8 12.5 8.8 1.5 0 3-.3 4.5-.8 6.9-2.5 10.5-10.1 8-17l-60.6-169.9c-.1-.4-.3-.8-.5-1.2l-.3-.6-.3-.6c-.1-.2-.3-.4-.4-.7-.1-.1-.2-.3-.3-.4-.1-.2-.3-.4-.5-.6-.1-.1-.2-.3-.4-.4-.1-.2-.3-.3-.5-.5l-.5-.5c-.1-.1-.3-.2-.4-.4-.2-.2-.4-.3-.6-.5-.1-.1-.3-.2-.4-.3-.2-.1-.4-.3-.6-.4l-.6-.3-.6-.3c-.4-.2-.8-.4-1.2-.5h-.1l-1.2-.3c-.2 0-.3-.1-.5-.1-.3-.1-.5-.1-.8-.2-.2 0-.4 0-.6-.1-.2 0-.5-.1-.7-.1H241.9c-.2 0-.5 0-.7.1-.2 0-.4 0-.6.1-.3 0-.5.1-.8.2-.2 0-.3.1-.5.1-.4.1-.8.2-1.1.3h-.1c-.4.1-.8.3-1.2.5l-.6.3-.6.3c-.2.1-.4.3-.7.4-.1.1-.3.2-.4.3-.2.2-.4.3-.6.5-.1.1-.3.2-.4.4l-.5.5-.5.5c-.1.1-.2.3-.4.4-.2.2-.3.4-.5.6-.1.1-.2.3-.3.4-.1.2-.3.4-.4.6l-.3.6-.3.6c-.2.4-.4.8-.5 1.2l-60.8 169.9c-2.2 7 1.4 14.6 8.3 17.1zm65.3-142.9l22.5 63h-45.1l22.6-63z"/>
</svg>
