<svg xmlns="http://www.w3.org/2000/svg" viewBox="0 0 477.5 477.5" class="pxl-icon">
    <path d="M407.533 70c-45.1-45.1-105-70-168.8-70s-123.7 24.8-168.8 69.9c-87 87-93.3 226-15.8 320.2-10.7 21.9-23.4 36.5-37.6 43.5-8.7 4.3-13.6 13.7-12.2 23.3 1.5 9.7 8.9 17.2 18.6 18.7 5.3.8 11 1.3 16.9 1.3 29.3 0 60.1-10.1 85.8-27.8 34.6 18.6 73.5 28.4 113.1 28.4 63.8 0 123.7-24.8 168.8-69.9s69.9-105.1 69.9-168.8-24.8-123.7-69.9-168.8zm-19.1 318.5c-40 40-93.2 62-149.7 62-37.8 0-74.9-10.1-107.2-29.1-2.1-1.2-4.5-1.9-6.8-1.9-2.9 0-5.9 1-8.3 2.8-30.6 23.7-61.4 27.2-74.9 27.5 16.1-12 29.6-30.6 40.9-56.5 2.1-4.8 1.2-10.4-2.3-14.4-74-83.6-70.1-211 8.9-290 40-40 93.2-62 149.7-62 56.6 0 109.7 22 149.7 62 82.6 82.7 82.6 217.1 0 299.6z"/>
    <path d="M299.333 129.4c-21.6 0-41.9 8.4-57.2 23.7l-3.4 3.4-3.4-3.4c-15.3-15.3-35.6-23.7-57.2-23.7-21.5 0-41.8 8.4-57 23.6-15.3 15.3-23.7 35.6-23.6 57.1 0 21.6 8.5 41.8 23.7 57.1l107.9 107.9c2.6 2.6 6.1 4 9.5 4s6.9-1.3 9.5-3.9l108.2-107.8c15.3-15.3 23.7-35.6 23.7-57.1 0-21.6-8.4-41.9-23.6-57.2-15.3-15.3-35.6-23.7-57.1-23.7zm37.9 118.9l-98.6 98.2-98.4-98.4c-10.2-10.2-15.8-23.7-15.8-38.1 0-14.4 5.6-27.9 15.7-38 10.1-10.1 23.6-15.7 38-15.7s27.9 5.6 38.1 15.8l13 13c5.3 5.3 13.8 5.3 19.1 0l12.9-12.9c10.2-10.2 23.7-15.8 38.1-15.8 14.3 0 27.8 5.6 38 15.8s15.8 23.7 15.7 38c0 14.4-5.6 27.9-15.8 38.1z"/>
</svg>
