<?xml version="1.0" encoding="UTF-8"?><!DOCTYPE svg PUBLIC "-//W3C//DTD SVG 1.1//EN" "http://www.w3.org/Graphics/SVG/1.1/DTD/svg11.dtd"><svg xmlns="http://www.w3.org/2000/svg" xmlns:xlink="http://www.w3.org/1999/xlink"><symbol id="pxl-icon-avatar-1" viewBox="0 0 472.6 472.6"><path d="M417.3 453.2c-22-45.7-61.6-81.6-109.6-99.7v-28.9c23.6-1.3 68.1-7.3 94.2-34 3.3-3.4 4.6-8.3 3.4-12.9s-4.8-8.2-9.4-9.5c-.4-.1-34.8-11.9-27.9-82.3 3-30 2.5-57-1.4-80.2-4.5-26.6-13.5-47.5-26.6-62.1-14.2-15.7-32.7-23.7-55-23.7h-2.6C273.9 12.5 255.3 0 226.8 0c-13.3 0-27.2 2.7-41.4 8.2l-.6.2c-11.2 4.2-32 12.1-49.6 35.5-20.5 27.2-30.3 67.5-29.1 119.7 1.2 52.3-7.4 77.9-14.8 90.2-6.1 10.1-11.9 12.1-13.4 12.5-5.1-.4-9.2 2.2-11.8 6.6-2.7 4.5-1.7 10.2 1.3 14.6 1.2 1.8 8.2 11.2 25.1 20.3 19.3 10.4 43.4 16.3 71.9 17.5v27.5C117 370.8 77.6 407 55.3 453.3c-2 4.2-1.7 9.1.7 13 2.5 3.9 6.8 6.3 11.4 6.3h337.8c4.6 0 9-2.4 11.4-6.3 2.4-4 2.7-8.9.7-13.1zm-326.9-7.7c21.6-33.2 54-58.3 91.5-70.4 5.6-1.8 9.4-7 9.4-12.8V312c0-3.6-1.4-7.1-4-9.6s-6-4-9.6-3.9c-38.9.4-62.4-8.5-75.2-16.1.9-.9 1.9-1.8 2.9-2.8 19.7-20.5 29-59.7 27.7-116.6-2.6-105.1 42.1-122.1 61.1-129.3l.6-.2c11.2-4.2 21.9-6.4 31.8-6.4 25.8 0 39 14.2 40.1 15.5 2.8 3.5 7.1 5.2 11.6 4.8 2.2-.2 4.4-.3 6.5-.3 14.5 0 26 4.8 35 14.8 19 21 26.8 65.3 21.2 121.5-5.6 56.7 12.1 85.1 27.4 98.9-20.6 11.4-49.9 15.7-72 15.7h-2c-3.6-.1-7.2 1.3-9.8 3.8-2.6 2.5-4.1 6-4.1 9.7v51.7c0 5.9 3.8 11 9.4 12.8 38 12.3 70.5 37.1 92 69.7H90.4v-.2z"/></symbol><symbol id="pxl-icon-avatar" viewBox="0 0 482.9 482.9"><path d="M239.7 260.2h3.2c29.3-.5 53-10.8 70.5-30.5 38.5-43.4 32.1-117.8 31.4-124.9-2.5-53.3-27.7-78.8-48.5-90.7C280.8 5.2 262.7.4 242.5 0H240.8c-11.1 0-32.9 1.8-53.8 13.7-21 11.9-46.6 37.4-49.1 91.1-.7 7.1-7.1 81.5 31.4 124.9 17.4 19.7 41.1 30 70.4 30.5zm-75.1-152.9c0-.3.1-.6.1-.8 3.3-71.7 54.2-79.4 76-79.4H241.9c27 .6 72.9 11.6 76 79.4 0 .3 0 .6.1.8.1.7 7.1 68.7-24.7 104.5-12.6 14.2-29.4 21.2-51.5 21.4h-1c-22-.2-38.9-7.2-51.4-21.4-31.7-35.6-24.9-103.9-24.8-104.5z"/><path d="M446.8 383.6v-.3c0-.8-.1-1.6-.1-2.5-.6-19.8-1.9-66.1-45.3-80.9-.3-.1-.7-.2-1-.3-45.1-11.5-82.6-37.5-83-37.8-6.1-4.3-14.5-2.8-18.8 3.3-4.3 6.1-2.8 14.5 3.3 18.8 1.7 1.2 41.5 28.9 91.3 41.7 23.3 8.3 25.9 33.2 26.6 56 0 .9 0 1.7.1 2.5.1 9-.5 22.9-2.1 30.9-16.2 9.2-79.7 41-176.3 41-96.2 0-160.1-31.9-176.4-41.1-1.6-8-2.3-21.9-2.1-30.9 0-.8.1-1.6.1-2.5.7-22.8 3.3-47.7 26.6-56 49.8-12.8 89.6-40.6 91.3-41.7 6.1-4.3 7.6-12.7 3.3-18.8-4.3-6.1-12.7-7.6-18.8-3.3-.4.3-37.7 26.3-83 37.8-.4.1-.7.2-1 .3-43.4 14.9-44.7 61.2-45.3 80.9 0 .9 0 1.7-.1 2.5v.3c-.1 5.2-.2 31.9 5.1 45.3 1 2.6 2.8 4.8 5.2 6.3 3 2 74.9 47.8 195.2 47.8s192.2-45.9 195.2-47.8c2.3-1.5 4.2-3.7 5.2-6.3 5-13.3 4.9-40 4.8-45.2z"/></symbol><symbol id="pxl-icon-back" viewBox="0 0 477.175 477.175"><path d="M145.188 238.575l215.5-215.5c5.3-5.3 5.3-13.8 0-19.1s-13.8-5.3-19.1 0l-225.1 225.1c-5.3 5.3-5.3 13.8 0 19.1l225.1 225c2.6 2.6 6.1 4 9.5 4s6.9-1.3 9.5-4c5.3-5.3 5.3-13.8 0-19.1l-215.4-215.5z"/></symbol><symbol id="pxl-icon-book" viewBox="0 0 485.5 485.5"><path d="M422.1 126.2H126.4c-27.4 0-49.8-22.3-49.8-49.8 0-27.4 22.3-49.8 49.8-49.8h295.8c7.4 0 13.3-6 13.3-13.3 0-7.4-6-13.3-13.3-13.3H126.4C84.3 0 50 34.3 50 76.4v332.7c0 42.1 34.3 76.4 76.4 76.4h295.8c7.4 0 13.3-6 13.3-13.3V139.5c-.1-7.3-6-13.3-13.4-13.3zm-13.3 332.7H126.4c-27.4 0-49.8-22.3-49.8-49.8V134.4c13.4 11.5 30.8 18.5 49.8 18.5h282.4v306z"/><path d="M130.6 64.3c-7.4 0-13.3 6-13.3 13.3s6 13.3 13.3 13.3h249.8c7.4 0 13.3-6 13.3-13.3s-6-13.3-13.3-13.3H130.6zM177.4 400.7c1.5.5 3 .8 4.5.8 5.5 0 10.6-3.4 12.5-8.8l16.2-45.3H273c.5 0 1.1 0 1.6-.1l16.2 45.4c1.9 5.4 7.1 8.8 12.5 8.8 1.5 0 3-.3 4.5-.8 6.9-2.5 10.5-10.1 8-17l-60.6-169.9c-.1-.4-.3-.8-.5-1.2l-.3-.6-.3-.6c-.1-.2-.3-.4-.4-.7-.1-.1-.2-.3-.3-.4-.1-.2-.3-.4-.5-.6-.1-.1-.2-.3-.4-.4-.1-.2-.3-.3-.5-.5l-.5-.5c-.1-.1-.3-.2-.4-.4-.2-.2-.4-.3-.6-.5-.1-.1-.3-.2-.4-.3-.2-.1-.4-.3-.6-.4l-.6-.3-.6-.3c-.4-.2-.8-.4-1.2-.5h-.1l-1.2-.3c-.2 0-.3-.1-.5-.1-.3-.1-.5-.1-.8-.2-.2 0-.4 0-.6-.1-.2 0-.5-.1-.7-.1H241.9c-.2 0-.5 0-.7.1-.2 0-.4 0-.6.1-.3 0-.5.1-.8.2-.2 0-.3.1-.5.1-.4.1-.8.2-1.1.3h-.1c-.4.1-.8.3-1.2.5l-.6.3-.6.3c-.2.1-.4.3-.7.4-.1.1-.3.2-.4.3-.2.2-.4.3-.6.5-.1.1-.3.2-.4.4l-.5.5-.5.5c-.1.1-.2.3-.4.4-.2.2-.3.4-.5.6-.1.1-.2.3-.3.4-.1.2-.3.4-.4.6l-.3.6-.3.6c-.2.4-.4.8-.5 1.2l-60.8 169.9c-2.2 7 1.4 14.6 8.3 17.1zm65.3-142.9l22.5 63h-45.1l22.6-63z"/></symbol><symbol id="pxl-icon-cancel" viewBox="0 0 475.2 475.2"><path d="M405.6 69.6C360.7 24.7 301.1 0 237.6 0s-123.1 24.7-168 69.6S0 174.1 0 237.6s24.7 123.1 69.6 168 104.5 69.6 168 69.6 123.1-24.7 168-69.6 69.6-104.5 69.6-168-24.7-123.1-69.6-168zm-19.1 316.9c-39.8 39.8-92.7 61.7-148.9 61.7s-109.1-21.9-148.9-61.7c-82.1-82.1-82.1-215.7 0-297.8C128.5 48.9 181.4 27 237.6 27s109.1 21.9 148.9 61.7c82.1 82.1 82.1 215.7 0 297.8z"/><path d="M342.3 132.9c-5.3-5.3-13.8-5.3-19.1 0l-85.6 85.6-85.6-85.6c-5.3-5.3-13.8-5.3-19.1 0-5.3 5.3-5.3 13.8 0 19.1l85.6 85.6-85.6 85.6c-5.3 5.3-5.3 13.8 0 19.1 2.6 2.6 6.1 4 9.5 4s6.9-1.3 9.5-4l85.6-85.6 85.6 85.6c2.6 2.6 6.1 4 9.5 4 3.5 0 6.9-1.3 9.5-4 5.3-5.3 5.3-13.8 0-19.1l-85.4-85.6 85.6-85.6c5.3-5.3 5.3-13.8 0-19.1z"/></symbol><symbol id="pxl-icon-chat-1" viewBox="0 0 477.6 477.6"><path d="M407.583 70c-45.1-45.1-105-70-168.8-70s-123.7 24.9-168.8 70c-87 87-93.3 226-15.8 320.2-10.7 21.9-23.3 36.5-37.6 43.5-8.7 4.3-13.6 13.7-12.2 23.3 1.5 9.7 8.9 17.2 18.6 18.7 5.3.8 11 1.3 16.9 1.3 29.3 0 60.1-10.1 85.8-27.8 34.6 18.6 73.5 28.4 113.1 28.4 63.8 0 123.7-24.8 168.8-69.9s69.9-105.1 69.9-168.8-24.8-123.8-69.9-168.9zm-19.1 318.5c-40 40-93.2 62-149.7 62-37.8 0-74.9-10.1-107.2-29.1-2.1-1.2-4.5-1.9-6.8-1.9-2.9 0-5.9 1-8.3 2.8-30.6 23.7-61.4 27.2-74.9 27.5 16.1-12 29.6-30.6 40.9-56.5 2.1-4.8 1.2-10.4-2.3-14.4-74-83.6-70.1-211 8.9-290 40-40 93.2-62 149.7-62s109.7 22 149.7 62c82.6 82.7 82.6 217.1 0 299.6z"/><path d="M338.783 160h-200c-7.5 0-13.5 6-13.5 13.5s6 13.5 13.5 13.5h200c7.5 0 13.5-6 13.5-13.5s-6.1-13.5-13.5-13.5zM338.783 225.3h-200c-7.5 0-13.5 6-13.5 13.5s6 13.5 13.5 13.5h200c7.5 0 13.5-6 13.5-13.5s-6.1-13.5-13.5-13.5zM338.783 290.6h-200c-7.5 0-13.5 6-13.5 13.5s6 13.5 13.5 13.5h200c7.5 0 13.5-6 13.5-13.5s-6.1-13.5-13.5-13.5z"/></symbol><symbol id="pxl-icon-chat-2" viewBox="0 0 473 473"><path d="M403.581 69.3c-44.7-44.7-104-69.3-167.2-69.3s-122.5 24.6-167.2 69.3c-86.4 86.4-92.4 224.7-14.9 318-7.6 15.3-19.8 33.1-37.9 42-8.7 4.3-13.6 13.6-12.1 23.2s8.9 17.1 18.5 18.6c4.5.7 10.9 1.4 18.7 1.4 20.9 0 51.7-4.9 83.2-27.6 35.1 18.9 73.5 28.1 111.6 28.1 61.2 0 121.8-23.7 167.4-69.3 44.7-44.7 69.3-104 69.3-167.2s-24.7-122.5-69.4-167.2zm-19.1 315.3c-67.5 67.5-172 80.9-254.2 32.6-5.4-3.2-12.1-2.2-16.4 2.1-.4.2-.8.5-1.1.8-27.1 21-53.7 25.4-71.3 25.4h-.1c20.3-14.8 33.1-36.8 40.6-53.9 1.2-2.9 1.4-5.9.7-8.7-.3-2.7-1.4-5.4-3.3-7.6-73.2-82.7-69.4-208.7 8.8-286.9 81.7-81.7 214.6-81.7 296.2 0 81.8 81.7 81.8 214.5.1 296.2z"/><circle cx="236.381" cy="236.5" r="16.6"/><circle cx="321.981" cy="236.5" r="16.6"/><circle cx="150.781" cy="236.5" r="16.6"/></symbol><symbol id="pxl-icon-chat" viewBox="0 0 477.5 477.5"><path d="M407.533 70c-45.1-45.1-105-70-168.8-70s-123.7 24.8-168.8 69.9c-87 87-93.3 226-15.8 320.2-10.7 21.9-23.4 36.5-37.6 43.5-8.7 4.3-13.6 13.7-12.2 23.3 1.5 9.7 8.9 17.2 18.6 18.7 5.3.8 11 1.3 16.9 1.3 29.3 0 60.1-10.1 85.8-27.8 34.6 18.6 73.5 28.4 113.1 28.4 63.8 0 123.7-24.8 168.8-69.9s69.9-105.1 69.9-168.8-24.8-123.7-69.9-168.8zm-19.1 318.5c-40 40-93.2 62-149.7 62-37.8 0-74.9-10.1-107.2-29.1-2.1-1.2-4.5-1.9-6.8-1.9-2.9 0-5.9 1-8.3 2.8-30.6 23.7-61.4 27.2-74.9 27.5 16.1-12 29.6-30.6 40.9-56.5 2.1-4.8 1.2-10.4-2.3-14.4-74-83.6-70.1-211 8.9-290 40-40 93.2-62 149.7-62 56.6 0 109.7 22 149.7 62 82.6 82.7 82.6 217.1 0 299.6z"/><path d="M299.333 129.4c-21.6 0-41.9 8.4-57.2 23.7l-3.4 3.4-3.4-3.4c-15.3-15.3-35.6-23.7-57.2-23.7-21.5 0-41.8 8.4-57 23.6-15.3 15.3-23.7 35.6-23.6 57.1 0 21.6 8.5 41.8 23.7 57.1l107.9 107.9c2.6 2.6 6.1 4 9.5 4s6.9-1.3 9.5-3.9l108.2-107.8c15.3-15.3 23.7-35.6 23.7-57.1 0-21.6-8.4-41.9-23.6-57.2-15.3-15.3-35.6-23.7-57.1-23.7zm37.9 118.9l-98.6 98.2-98.4-98.4c-10.2-10.2-15.8-23.7-15.8-38.1 0-14.4 5.6-27.9 15.7-38 10.1-10.1 23.6-15.7 38-15.7s27.9 5.6 38.1 15.8l13 13c5.3 5.3 13.8 5.3 19.1 0l12.9-12.9c10.2-10.2 23.7-15.8 38.1-15.8 14.3 0 27.8 5.6 38 15.8s15.8 23.7 15.7 38c0 14.4-5.6 27.9-15.8 38.1z"/></symbol><symbol id="pxl-icon-copy" viewBox="0 0 488.3 488.3"><path d="M314.25 85.4h-227c-21.3 0-38.6 17.3-38.6 38.6v325.7c0 21.3 17.3 38.6 38.6 38.6h227c21.3 0 38.6-17.3 38.6-38.6V124c-.1-21.3-17.4-38.6-38.6-38.6zm11.5 364.2c0 6.4-5.2 11.6-11.6 11.6h-227c-6.4 0-11.6-5.2-11.6-11.6V124c0-6.4 5.2-11.6 11.6-11.6h227c6.4 0 11.6 5.2 11.6 11.6v325.6z"/><path d="M401.05 0h-227c-21.3 0-38.6 17.3-38.6 38.6 0 7.5 6 13.5 13.5 13.5s13.5-6 13.5-13.5c0-6.4 5.2-11.6 11.6-11.6h227c6.4 0 11.6 5.2 11.6 11.6v325.7c0 6.4-5.2 11.6-11.6 11.6-7.5 0-13.5 6-13.5 13.5s6 13.5 13.5 13.5c21.3 0 38.6-17.3 38.6-38.6V38.6c0-21.3-17.3-38.6-38.6-38.6z"/></symbol><symbol id="pxl-icon-down-arrow" viewBox="0 0 386.257 386.257"><path d="M0 96.879l193.129 192.5 193.128-192.5z"/></symbol><symbol id="pxl-icon-fast-food" viewBox="-4 0 464 464"><path d="M408 464H264l-24-320h192zm0 0" fill="#f05d46"/><path d="M216 104h240v40H216zm0 0" fill="#dedede"/><path d="M320 0h32v104h-32zm0 0" fill="#f05d46"/><path d="M274.3 208.531l15.966-1.058 3.046 46.004-15.964 1.058zm0 0M272.02 176.566l15.957-1.14 1.144 16-15.957 1.14zm0 0" fill="#ff8b78"/><path d="M430.2 168l1.8-24H240l1.8 24zm0 0M352 432v-32h-32c16.25-.098 29.848-12.363 31.613-28.52 1.77-16.156-8.855-31.07-24.703-34.68l1.09-.8h24c-.027-59.48-46.578-108.547-105.977-111.695L264 464h56c17.672 0 32-14.328 32-32zm0 0" fill="#d64d37"/><path d="M0 400h320v32c0 17.672-14.328 32-32 32H32c-17.672 0-32-14.328-32-32zm0 0" fill="#f09e3e"/><path d="M240 400v32c0 17.672-14.328 32-32 32h80c17.672 0 32-14.328 32-32v-32zm0 0" fill="#f09032"/><path d="M112 224h96c61.855 0 112 50.145 112 112H0c0-61.855 50.145-112 112-112zm0 0" fill="#f09e3e"/><path d="M208 224h-80c61.855 0 112 50.145 112 112h80c0-61.855-50.145-112-112-112zm0 0" fill="#f09032"/><path d="M32 336h256c17.672 0 32 14.328 32 32s-14.328 32-32 32H32c-17.672 0-32-14.328-32-32s14.328-32 32-32zm0 0" fill="#8c563b"/><path d="M315.559 352A31.847 31.847 0 0 0 288 336H32a31.847 31.847 0 0 0-27.559 16zm0 0" fill="#874e35"/><path d="M112 336l96 64 88-64zm0 0" fill="#fc3"/><g fill="#c96e23"><path d="M176 280h16v16h-16zm0 0M128 280h16v16h-16zm0 0M80 280h16v16H80zm0 0M200 248h16v16h-16zm0 0M152 248h16v16h-16zm0 0M104 248h16v16h-16zm0 0M224 280h16v16h-16zm0 0"/></g><path d="M272.625 353L296 336H112l25.504 17zm0 0" fill="#ffb60c"/></symbol><symbol id="pxl-icon-logo" viewBox="0 0 800 272.1"><style>.st0{fill:#fff}</style><path class="st0" d="M142.8 120.1c-5.7 0-10.2 4.9-10.2 11s4.6 11 10.2 11c5.7 0 10.2-4.9 10.2-11s-4.6-11-10.2-11zm-36.5 0c-5.7 0-10.2 4.9-10.2 11s4.6 11 10.2 11c5.7 0 10.2-4.9 10.2-11 .1-6.1-4.5-11-10.2-11z"/><path class="st0" d="M191.4 36.9h-134c-11.3 0-20.5 9.2-20.5 20.5v134c0 11.3 9.2 20.5 20.5 20.5h113.4l-5.3-18.3 12.8 11.8 12.1 11.1 21.6 18.7V57.4c-.1-11.3-9.3-20.5-20.6-20.5zm-38.6 129.5s-3.6-4.3-6.6-8c13.1-3.7 18.1-11.8 18.1-11.8-4.1 2.7-8 4.6-11.5 5.9-5 2.1-9.8 3.4-14.5 4.3-9.6 1.8-18.4 1.3-25.9-.1-5.7-1.1-10.6-2.6-14.7-4.3-2.3-.9-4.8-2-7.3-3.4-.3-.2-.6-.3-.9-.5-.2-.1-.3-.2-.4-.2-1.8-1-2.8-1.7-2.8-1.7s4.8 7.9 17.5 11.7c-3 3.8-6.7 8.2-6.7 8.2-22.1-.7-30.5-15.1-30.5-15.1 0-31.9 14.4-57.8 14.4-57.8 14.4-10.7 28-10.4 28-10.4l1 1.2c-18 5.1-26.2 13-26.2 13s2.2-1.2 5.9-2.8c10.7-4.7 19.2-5.9 22.7-6.3.6-.1 1.1-.2 1.7-.2 6.1-.8 13-1 20.2-.2 9.5 1.1 19.7 3.9 30.1 9.5 0 0-7.9-7.5-24.9-12.6l1.4-1.6s13.7-.3 28 10.4c0 0 14.4 25.9 14.4 57.8 0-.1-8.4 14.3-30.5 15zm151-86.7h-33.2V117l22.1 19.9v-36.2h11.8c7.5 0 11.2 3.6 11.2 9.4v27.7c0 5.8-3.5 9.7-11.2 9.7h-34v21.1h33.2c17.8.1 34.5-8.8 34.5-29.2v-29.8c.1-20.8-16.6-29.9-34.4-29.9zm174 59.7v-30.6c0-11 19.8-13.5 25.8-2.5l18.3-7.4c-7.2-15.8-20.3-20.4-31.2-20.4-17.8 0-35.4 10.3-35.4 30.3v30.6c0 20.2 17.6 30.3 35 30.3 11.2 0 24.6-5.5 32-19.9l-19.6-9c-4.8 12.3-24.9 9.3-24.9-1.4zM417.3 113c-6.9-1.5-11.5-4-11.8-8.3.4-10.3 16.3-10.7 25.6-.8l14.7-11.3c-9.2-11.2-19.6-14.2-30.3-14.2-16.3 0-32.1 9.2-32.1 26.6 0 16.9 13 26 27.3 28.2 7.3 1 15.4 3.9 15.2 8.9-.6 9.5-20.2 9-29.1-1.8l-14.2 13.3c8.3 10.7 19.6 16.1 30.2 16.1 16.3 0 34.4-9.4 35.1-26.6 1-21.7-14.8-27.2-30.6-30.1zm-67 55.5h22.4V79.7h-22.4v88.8zM728 79.7h-33.2V117l22.1 19.9v-36.2h11.8c7.5 0 11.2 3.6 11.2 9.4v27.7c0 5.8-3.5 9.7-11.2 9.7h-34v21.1H728c17.8.1 34.5-8.8 34.5-29.2v-29.8c0-20.8-16.7-29.9-34.5-29.9zm-162.9-1.2c-18.4 0-36.7 10-36.7 30.5v30.3c0 20.3 18.4 30.5 36.9 30.5 18.4 0 36.7-10.2 36.7-30.5V109c0-20.4-18.5-30.5-36.9-30.5zm14.4 60.8c0 6.4-7.2 9.7-14.3 9.7-7.2 0-14.4-3.1-14.4-9.7V109c0-6.5 7-10 14-10 7.3 0 14.7 3.1 14.7 10v30.3zM682.4 109c-.5-20.8-14.7-29.2-33-29.2h-35.5v88.8h22.7v-28.2h4l20.6 28.2h28L665 138.1c10.7-3.4 17.4-12.7 17.4-29.1zm-32.6 12h-13.2v-20.3h13.2c14.1 0 14.1 20.3 0 20.3z"/></symbol><symbol id="pxl-icon-menu" viewBox="0 0 384.97 384.97"><path d="M12.03 120.303h360.909c6.641 0 12.03-5.39 12.03-12.03 0-6.641-5.39-12.03-12.03-12.03H12.03c-6.641 0-12.03 5.39-12.03 12.03s5.39 12.03 12.03 12.03zM372.939 180.455H12.03c-6.641 0-12.03 5.39-12.03 12.03s5.39 12.03 12.03 12.03h360.909c6.641 0 12.03-5.39 12.03-12.03s-5.389-12.03-12.03-12.03zM372.939 264.667H132.333c-6.641 0-12.03 5.39-12.03 12.03 0 6.641 5.39 12.03 12.03 12.03h240.606c6.641 0 12.03-5.39 12.03-12.03.001-6.641-5.389-12.03-12.03-12.03z"/></symbol><symbol id="pxl-icon-slack" viewBox="1.464 25.444 498.152 149.23"><path fill="#443642" d="M178.463 83.987c0-14.818 10.804-25.165 30.438-25.165 11.98 0 21.783 3.825 27.094 7.572.76.535 2.116 1.833 1.303 4.247-1.042 2.6-2.953 6.51-4.324 9.05-.798 1.48-2.836 1.285-3.88.756-3.783-1.917-9.988-5.16-15.688-5.758a33.378 33.378 0 0 0-4.347-.188c-5.02.112-9.214 1.855-10.691 5.685a6.74 6.74 0 0 0-.477 2.274c-.138 5.047 6.886 6.872 15.395 8.334 15.819 2.71 27.787 7.348 27.787 23.63 0 13.827-10.989 26.323-32.52 25.94-14.194-.287-24.264-5.083-29.66-9.737-.184-.158-2.238-2.25-1.137-4.766 1.26-3.239 3.387-6.951 5.056-8.922.928-1.266 3.377-1.467 4.65-.678 4.448 2.764 11.768 7.196 20.206 7.49.666.023 1.326.027 1.974.01 7.59-.184 12.182-3.062 12.086-7.91-.082-4.271-6.1-6.766-15.683-8.572-15.284-2.879-27.58-7.917-27.58-23.292m138.851 21.099c-10.778.141-20.66 3.087-20.945 11.51-.003 6.684 5.419 9.967 13.029 9.537 7.3-.703 12.867-3.869 15.32-8.07.907-1.557 1.045-7.383.99-9.873-.014-.53-1.062-1.533-1.521-1.726-2.29-.965-3.985-1.263-6.874-1.38m-35.862-33.938c5.04-4.51 15.033-11.53 30.959-11.16 21.017.437 32.12 10.29 33.154 33.86.426 9.72-.28 36.832-.448 43.587-.025.969-.353 1.639-1.659 1.664-3.461.139-11.457.084-15.131.036-1.854-.09-2.069-1.01-2.093-1.973-.016-.63-.07-2.498-.109-4.021-.021-.808-.78-.785-.974-.578-4.93 5.264-13.004 7.806-21.59 7.806-13.05 0-26.06-7.677-26.02-22.88.04-15.57 11.08-23.25 23.208-25.061 7.766-1.156 16.52-.128 23.149 2.506.424.17 1.29-.076 1.297-.677.027-1.984-.069-5.765-.45-7.557-.973-4.566-4.782-8.24-12.784-9.23-1.648-.203-3.307-.27-4.968-.138-6.361.5-14.016 5.46-17.186 7.317-.746.436-1.914.117-2.292-.37-1.85-2.39-6.5-9.38-6.866-10.497-.366-1.114.15-2.052.801-2.638l.002.004zm71.043 28.984c-.125-21.715 15.005-40.034 39.573-40.195 15.33-.1 26.467 6.85 28.431 10.128.399.77.194 1.413-.082 2.188-1.298 2.74-4.576 8.034-6.912 11.034-.995 1.278-2.075.183-3.33-.652-3.483-2.32-10.101-5.157-16.614-5.157-11.816.002-20.615 8.104-20.517 23.01.092 14.304 8.52 22.165 20.558 22.45 6.293.158 12.39-3.459 15.67-6.422 1.03-.899 2.096-.449 3.273.471 2.31 2.361 5.623 6.006 7.46 8.515 1.203 1.394.303 2.758-.13 3.306-4.984 6.307-14.61 11.615-27.349 11.687-26.674.187-39.906-18.568-40.029-40.36m127.325 39.381c1.252-.094 14.613-1.938 18.714-2.877 1.018-.232 1.38-1.088.811-1.936-2.29-3.434-8.311-13.186-14.617-21.916-5.8-8.027-11.913-15.087-13.89-17.803-.482-.66-.456-1.31.069-1.822 3.761-3.68 19.493-19.105 25.408-25.475 2.29-2.478.915-3.544-1.03-4.123-3.757-1.12-9.834-2.516-13.29-3.245-1.457-.308-3.212-.2-4.486 1.11-5.914 5.515-23.963 23.63-29.351 29.045-.97.977-1.535.76-1.54-.636-.044-10.44-.25-55.138-.623-62.49-.026-.972-1.195-1.71-1.854-1.745-3.388-.177-11.947-.228-15.32-.03-.945.107-1.848 1.07-1.93 1.884-.778 11.756.33 98.054.792 110.126.033.873.683 1.55 1.512 1.599 3.365.195 11.688.182 15.574.109 1.912 0 2.146-1.344 2.146-1.344l.288-23.157s.197-1.03.516-1.37c1.37-1.475 5.16-5.537 6.776-7.107.388-.377 1-.35 1.396.183 1.92 2.59 7.395 11.01 12.47 18.53 4.663 6.908 9.016 13.039 9.32 13.472.702 1 1.522 1.04 2.14 1.021v-.003zm-227.233-.08c1.175.039 10.09.029 14.04.024 1.33.026 2.021-.981 2.065-1.87.839-16.926.48-97.512-.05-110.237-.044-1.1-.515-1.513-1.266-1.613-3.39-.454-13.024-.348-16.112.46-.604.157-.96.616-.979 1.206-.756 32.8-.246 108.42-.086 109.852.159 1.434.909 2.128 2.39 2.178h-.002z"/><path fill="#70CADB" d="M13.997 105.78c-5.494.042-10.148-3.232-11.864-8.342a13.67 13.67 0 0 1-.178-.583c-1.87-6.544 1.756-13.39 8.255-15.582L114.45 46.35a14.128 14.128 0 0 1 3.807-.556c5.64-.044 10.422 3.302 12.18 8.52l.156.504c1.95 6.816-2.895 12.9-8.7 14.85-.004.003-1.06.36-103.662 35.391a13.49 13.49 0 0 1-4.234.721z"/><path fill="#E01765" d="M31.372 157.045c-5.537.04-10.207-3.188-11.903-8.225a13.34 13.34 0 0 1-.18-.579c-1.896-6.622 1.726-13.54 8.247-15.735L131.78 97.263c1.347-.45 2.738-.68 4.137-.693 5.552-.042 10.43 3.35 12.151 8.444l.16.53c1.007 3.521.412 7.478-1.59 10.601-1.492 2.322-6.198 4.366-6.198 4.366L35.8 156.29a14.356 14.356 0 0 1-4.428.757v-.002z"/><path fill="#E8A723" d="M118.148 157.268a12.798 12.798 0 0 1-12.255-8.723l-34.79-103.34-.174-.58c-1.885-6.59 1.74-13.464 8.237-15.654 1.3-.437 2.644-.665 3.997-.677 2.01-.015 3.955.438 5.787 1.343a12.772 12.772 0 0 1 6.449 7.392l34.787 103.331.101.332c1.954 6.842-1.663 13.72-8.16 15.91a12.935 12.935 0 0 1-3.979.666z"/><path fill="#3EB890" d="M66.435 174.674a12.803 12.803 0 0 1-12.26-8.73L19.394 62.608a12.797 12.797 0 0 1 8.051-16.23 12.96 12.96 0 0 1 3.985-.668 12.796 12.796 0 0 1 12.257 8.723l34.782 103.34a12.797 12.797 0 0 1-8.06 16.233 12.88 12.88 0 0 1-3.978.667h.004z"/><path fill="#CC2027" d="M100.997 133.996l24.258-8.294-7.93-23.55-24.286 8.207 7.958 23.637z"/><path fill="#361238" d="M49.364 151.65l24.256-8.293-7.99-23.73-24.28 8.21 8.014 23.813z"/><path fill="#65863A" d="M83.727 82.7l24.26-8.283-7.837-23.275-24.305 8.143L83.727 82.7z"/><path fill="#1A937D" d="M32.088 100.33l24.26-8.283-7.933-23.572-24.305 8.142 7.978 23.713z"/></symbol></svg>