<?xml version="1.0" encoding="UTF-8"?><!DOCTYPE svg PUBLIC "-//W3C//DTD SVG 1.1//EN" "http://www.w3.org/Graphics/SVG/1.1/DTD/svg11.dtd"><svg xmlns="http://www.w3.org/2000/svg" xmlns:xlink="http://www.w3.org/1999/xlink"><symbol id="pxl-icon-avatar-1" viewBox="0 0 472.6 472.6"><path d="M417.3 453.2c-22-45.7-61.6-81.6-109.6-99.7v-28.9c23.6-1.3 68.1-7.3 94.2-34 3.3-3.4 4.6-8.3 3.4-12.9s-4.8-8.2-9.4-9.5c-.4-.1-34.8-11.9-27.9-82.3 3-30 2.5-57-1.4-80.2-4.5-26.6-13.5-47.5-26.6-62.1-14.2-15.7-32.7-23.7-55-23.7h-2.6C273.9 12.5 255.3 0 226.8 0c-13.3 0-27.2 2.7-41.4 8.2l-.6.2c-11.2 4.2-32 12.1-49.6 35.5-20.5 27.2-30.3 67.5-29.1 119.7 1.2 52.3-7.4 77.9-14.8 90.2-6.1 10.1-11.9 12.1-13.4 12.5-5.1-.4-9.2 2.2-11.8 6.6-2.7 4.5-1.7 10.2 1.3 14.6 1.2 1.8 8.2 11.2 25.1 20.3 19.3 10.4 43.4 16.3 71.9 17.5v27.5C117 370.8 77.6 407 55.3 453.3c-2 4.2-1.7 9.1.7 13 2.5 3.9 6.8 6.3 11.4 6.3h337.8c4.6 0 9-2.4 11.4-6.3 2.4-4 2.7-8.9.7-13.1zm-326.9-7.7c21.6-33.2 54-58.3 91.5-70.4 5.6-1.8 9.4-7 9.4-12.8V312c0-3.6-1.4-7.1-4-9.6s-6-4-9.6-3.9c-38.9.4-62.4-8.5-75.2-16.1.9-.9 1.9-1.8 2.9-2.8 19.7-20.5 29-59.7 27.7-116.6-2.6-105.1 42.1-122.1 61.1-129.3l.6-.2c11.2-4.2 21.9-6.4 31.8-6.4 25.8 0 39 14.2 40.1 15.5 2.8 3.5 7.1 5.2 11.6 4.8 2.2-.2 4.4-.3 6.5-.3 14.5 0 26 4.8 35 14.8 19 21 26.8 65.3 21.2 121.5-5.6 56.7 12.1 85.1 27.4 98.9-20.6 11.4-49.9 15.7-72 15.7h-2c-3.6-.1-7.2 1.3-9.8 3.8-2.6 2.5-4.1 6-4.1 9.7v51.7c0 5.9 3.8 11 9.4 12.8 38 12.3 70.5 37.1 92 69.7H90.4v-.2z"/></symbol><symbol id="pxl-icon-avatar" viewBox="0 0 482.9 482.9"><path d="M239.7 260.2h3.2c29.3-.5 53-10.8 70.5-30.5 38.5-43.4 32.1-117.8 31.4-124.9-2.5-53.3-27.7-78.8-48.5-90.7C280.8 5.2 262.7.4 242.5 0H240.8c-11.1 0-32.9 1.8-53.8 13.7-21 11.9-46.6 37.4-49.1 91.1-.7 7.1-7.1 81.5 31.4 124.9 17.4 19.7 41.1 30 70.4 30.5zm-75.1-152.9c0-.3.1-.6.1-.8 3.3-71.7 54.2-79.4 76-79.4H241.9c27 .6 72.9 11.6 76 79.4 0 .3 0 .6.1.8.1.7 7.1 68.7-24.7 104.5-12.6 14.2-29.4 21.2-51.5 21.4h-1c-22-.2-38.9-7.2-51.4-21.4-31.7-35.6-24.9-103.9-24.8-104.5z"/><path d="M446.8 383.6v-.3c0-.8-.1-1.6-.1-2.5-.6-19.8-1.9-66.1-45.3-80.9-.3-.1-.7-.2-1-.3-45.1-11.5-82.6-37.5-83-37.8-6.1-4.3-14.5-2.8-18.8 3.3-4.3 6.1-2.8 14.5 3.3 18.8 1.7 1.2 41.5 28.9 91.3 41.7 23.3 8.3 25.9 33.2 26.6 56 0 .9 0 1.7.1 2.5.1 9-.5 22.9-2.1 30.9-16.2 9.2-79.7 41-176.3 41-96.2 0-160.1-31.9-176.4-41.1-1.6-8-2.3-21.9-2.1-30.9 0-.8.1-1.6.1-2.5.7-22.8 3.3-47.7 26.6-56 49.8-12.8 89.6-40.6 91.3-41.7 6.1-4.3 7.6-12.7 3.3-18.8-4.3-6.1-12.7-7.6-18.8-3.3-.4.3-37.7 26.3-83 37.8-.4.1-.7.2-1 .3-43.4 14.9-44.7 61.2-45.3 80.9 0 .9 0 1.7-.1 2.5v.3c-.1 5.2-.2 31.9 5.1 45.3 1 2.6 2.8 4.8 5.2 6.3 3 2 74.9 47.8 195.2 47.8s192.2-45.9 195.2-47.8c2.3-1.5 4.2-3.7 5.2-6.3 5-13.3 4.9-40 4.8-45.2z"/></symbol><symbol id="pxl-icon-back" viewBox="0 0 477.175 477.175"><path d="M145.188 238.575l215.5-215.5c5.3-5.3 5.3-13.8 0-19.1s-13.8-5.3-19.1 0l-225.1 225.1c-5.3 5.3-5.3 13.8 0 19.1l225.1 225c2.6 2.6 6.1 4 9.5 4s6.9-1.3 9.5-4c5.3-5.3 5.3-13.8 0-19.1l-215.4-215.5z"/></symbol><symbol id="pxl-icon-book" viewBox="0 0 485.5 485.5"><path d="M422.1 126.2H126.4c-27.4 0-49.8-22.3-49.8-49.8 0-27.4 22.3-49.8 49.8-49.8h295.8c7.4 0 13.3-6 13.3-13.3 0-7.4-6-13.3-13.3-13.3H126.4C84.3 0 50 34.3 50 76.4v332.7c0 42.1 34.3 76.4 76.4 76.4h295.8c7.4 0 13.3-6 13.3-13.3V139.5c-.1-7.3-6-13.3-13.4-13.3zm-13.3 332.7H126.4c-27.4 0-49.8-22.3-49.8-49.8V134.4c13.4 11.5 30.8 18.5 49.8 18.5h282.4v306z"/><path d="M130.6 64.3c-7.4 0-13.3 6-13.3 13.3s6 13.3 13.3 13.3h249.8c7.4 0 13.3-6 13.3-13.3s-6-13.3-13.3-13.3H130.6zM177.4 400.7c1.5.5 3 .8 4.5.8 5.5 0 10.6-3.4 12.5-8.8l16.2-45.3H273c.5 0 1.1 0 1.6-.1l16.2 45.4c1.9 5.4 7.1 8.8 12.5 8.8 1.5 0 3-.3 4.5-.8 6.9-2.5 10.5-10.1 8-17l-60.6-169.9c-.1-.4-.3-.8-.5-1.2l-.3-.6-.3-.6c-.1-.2-.3-.4-.4-.7-.1-.1-.2-.3-.3-.4-.1-.2-.3-.4-.5-.6-.1-.1-.2-.3-.4-.4-.1-.2-.3-.3-.5-.5l-.5-.5c-.1-.1-.3-.2-.4-.4-.2-.2-.4-.3-.6-.5-.1-.1-.3-.2-.4-.3-.2-.1-.4-.3-.6-.4l-.6-.3-.6-.3c-.4-.2-.8-.4-1.2-.5h-.1l-1.2-.3c-.2 0-.3-.1-.5-.1-.3-.1-.5-.1-.8-.2-.2 0-.4 0-.6-.1-.2 0-.5-.1-.7-.1H241.9c-.2 0-.5 0-.7.1-.2 0-.4 0-.6.1-.3 0-.5.1-.8.2-.2 0-.3.1-.5.1-.4.1-.8.2-1.1.3h-.1c-.4.1-.8.3-1.2.5l-.6.3-.6.3c-.2.1-.4.3-.7.4-.1.1-.3.2-.4.3-.2.2-.4.3-.6.5-.1.1-.3.2-.4.4l-.5.5-.5.5c-.1.1-.2.3-.4.4-.2.2-.3.4-.5.6-.1.1-.2.3-.3.4-.1.2-.3.4-.4.6l-.3.6-.3.6c-.2.4-.4.8-.5 1.2l-60.8 169.9c-2.2 7 1.4 14.6 8.3 17.1zm65.3-142.9l22.5 63h-45.1l22.6-63z"/></symbol><symbol id="pxl-icon-cancel" viewBox="0 0 475.2 475.2"><path d="M405.6 69.6C360.7 24.7 301.1 0 237.6 0s-123.1 24.7-168 69.6S0 174.1 0 237.6s24.7 123.1 69.6 168 104.5 69.6 168 69.6 123.1-24.7 168-69.6 69.6-104.5 69.6-168-24.7-123.1-69.6-168zm-19.1 316.9c-39.8 39.8-92.7 61.7-148.9 61.7s-109.1-21.9-148.9-61.7c-82.1-82.1-82.1-215.7 0-297.8C128.5 48.9 181.4 27 237.6 27s109.1 21.9 148.9 61.7c82.1 82.1 82.1 215.7 0 297.8z"/><path d="M342.3 132.9c-5.3-5.3-13.8-5.3-19.1 0l-85.6 85.6-85.6-85.6c-5.3-5.3-13.8-5.3-19.1 0-5.3 5.3-5.3 13.8 0 19.1l85.6 85.6-85.6 85.6c-5.3 5.3-5.3 13.8 0 19.1 2.6 2.6 6.1 4 9.5 4s6.9-1.3 9.5-4l85.6-85.6 85.6 85.6c2.6 2.6 6.1 4 9.5 4 3.5 0 6.9-1.3 9.5-4 5.3-5.3 5.3-13.8 0-19.1l-85.4-85.6 85.6-85.6c5.3-5.3 5.3-13.8 0-19.1z"/></symbol><symbol id="pxl-icon-chat-1" viewBox="0 0 477.6 477.6"><path d="M407.583 70c-45.1-45.1-105-70-168.8-70s-123.7 24.9-168.8 70c-87 87-93.3 226-15.8 320.2-10.7 21.9-23.3 36.5-37.6 43.5-8.7 4.3-13.6 13.7-12.2 23.3 1.5 9.7 8.9 17.2 18.6 18.7 5.3.8 11 1.3 16.9 1.3 29.3 0 60.1-10.1 85.8-27.8 34.6 18.6 73.5 28.4 113.1 28.4 63.8 0 123.7-24.8 168.8-69.9s69.9-105.1 69.9-168.8-24.8-123.8-69.9-168.9zm-19.1 318.5c-40 40-93.2 62-149.7 62-37.8 0-74.9-10.1-107.2-29.1-2.1-1.2-4.5-1.9-6.8-1.9-2.9 0-5.9 1-8.3 2.8-30.6 23.7-61.4 27.2-74.9 27.5 16.1-12 29.6-30.6 40.9-56.5 2.1-4.8 1.2-10.4-2.3-14.4-74-83.6-70.1-211 8.9-290 40-40 93.2-62 149.7-62s109.7 22 149.7 62c82.6 82.7 82.6 217.1 0 299.6z"/><path d="M338.783 160h-200c-7.5 0-13.5 6-13.5 13.5s6 13.5 13.5 13.5h200c7.5 0 13.5-6 13.5-13.5s-6.1-13.5-13.5-13.5zM338.783 225.3h-200c-7.5 0-13.5 6-13.5 13.5s6 13.5 13.5 13.5h200c7.5 0 13.5-6 13.5-13.5s-6.1-13.5-13.5-13.5zM338.783 290.6h-200c-7.5 0-13.5 6-13.5 13.5s6 13.5 13.5 13.5h200c7.5 0 13.5-6 13.5-13.5s-6.1-13.5-13.5-13.5z"/></symbol><symbol id="pxl-icon-chat-2" viewBox="0 0 473 473"><path d="M403.581 69.3c-44.7-44.7-104-69.3-167.2-69.3s-122.5 24.6-167.2 69.3c-86.4 86.4-92.4 224.7-14.9 318-7.6 15.3-19.8 33.1-37.9 42-8.7 4.3-13.6 13.6-12.1 23.2s8.9 17.1 18.5 18.6c4.5.7 10.9 1.4 18.7 1.4 20.9 0 51.7-4.9 83.2-27.6 35.1 18.9 73.5 28.1 111.6 28.1 61.2 0 121.8-23.7 167.4-69.3 44.7-44.7 69.3-104 69.3-167.2s-24.7-122.5-69.4-167.2zm-19.1 315.3c-67.5 67.5-172 80.9-254.2 32.6-5.4-3.2-12.1-2.2-16.4 2.1-.4.2-.8.5-1.1.8-27.1 21-53.7 25.4-71.3 25.4h-.1c20.3-14.8 33.1-36.8 40.6-53.9 1.2-2.9 1.4-5.9.7-8.7-.3-2.7-1.4-5.4-3.3-7.6-73.2-82.7-69.4-208.7 8.8-286.9 81.7-81.7 214.6-81.7 296.2 0 81.8 81.7 81.8 214.5.1 296.2z"/><circle cx="236.381" cy="236.5" r="16.6"/><circle cx="321.981" cy="236.5" r="16.6"/><circle cx="150.781" cy="236.5" r="16.6"/></symbol><symbol id="pxl-icon-chat" viewBox="0 0 477.5 477.5"><path d="M407.533 70c-45.1-45.1-105-70-168.8-70s-123.7 24.8-168.8 69.9c-87 87-93.3 226-15.8 320.2-10.7 21.9-23.4 36.5-37.6 43.5-8.7 4.3-13.6 13.7-12.2 23.3 1.5 9.7 8.9 17.2 18.6 18.7 5.3.8 11 1.3 16.9 1.3 29.3 0 60.1-10.1 85.8-27.8 34.6 18.6 73.5 28.4 113.1 28.4 63.8 0 123.7-24.8 168.8-69.9s69.9-105.1 69.9-168.8-24.8-123.7-69.9-168.8zm-19.1 318.5c-40 40-93.2 62-149.7 62-37.8 0-74.9-10.1-107.2-29.1-2.1-1.2-4.5-1.9-6.8-1.9-2.9 0-5.9 1-8.3 2.8-30.6 23.7-61.4 27.2-74.9 27.5 16.1-12 29.6-30.6 40.9-56.5 2.1-4.8 1.2-10.4-2.3-14.4-74-83.6-70.1-211 8.9-290 40-40 93.2-62 149.7-62 56.6 0 109.7 22 149.7 62 82.6 82.7 82.6 217.1 0 299.6z"/><path d="M299.333 129.4c-21.6 0-41.9 8.4-57.2 23.7l-3.4 3.4-3.4-3.4c-15.3-15.3-35.6-23.7-57.2-23.7-21.5 0-41.8 8.4-57 23.6-15.3 15.3-23.7 35.6-23.6 57.1 0 21.6 8.5 41.8 23.7 57.1l107.9 107.9c2.6 2.6 6.1 4 9.5 4s6.9-1.3 9.5-3.9l108.2-107.8c15.3-15.3 23.7-35.6 23.7-57.1 0-21.6-8.4-41.9-23.6-57.2-15.3-15.3-35.6-23.7-57.1-23.7zm37.9 118.9l-98.6 98.2-98.4-98.4c-10.2-10.2-15.8-23.7-15.8-38.1 0-14.4 5.6-27.9 15.7-38 10.1-10.1 23.6-15.7 38-15.7s27.9 5.6 38.1 15.8l13 13c5.3 5.3 13.8 5.3 19.1 0l12.9-12.9c10.2-10.2 23.7-15.8 38.1-15.8 14.3 0 27.8 5.6 38 15.8s15.8 23.7 15.7 38c0 14.4-5.6 27.9-15.8 38.1z"/></symbol><symbol id="pxl-icon-copy" viewBox="0 0 488.3 488.3"><path d="M314.25 85.4h-227c-21.3 0-38.6 17.3-38.6 38.6v325.7c0 21.3 17.3 38.6 38.6 38.6h227c21.3 0 38.6-17.3 38.6-38.6V124c-.1-21.3-17.4-38.6-38.6-38.6zm11.5 364.2c0 6.4-5.2 11.6-11.6 11.6h-227c-6.4 0-11.6-5.2-11.6-11.6V124c0-6.4 5.2-11.6 11.6-11.6h227c6.4 0 11.6 5.2 11.6 11.6v325.6z"/><path d="M401.05 0h-227c-21.3 0-38.6 17.3-38.6 38.6 0 7.5 6 13.5 13.5 13.5s13.5-6 13.5-13.5c0-6.4 5.2-11.6 11.6-11.6h227c6.4 0 11.6 5.2 11.6 11.6v325.7c0 6.4-5.2 11.6-11.6 11.6-7.5 0-13.5 6-13.5 13.5s6 13.5 13.5 13.5c21.3 0 38.6-17.3 38.6-38.6V38.6c0-21.3-17.3-38.6-38.6-38.6z"/></symbol><symbol id="pxl-icon-fast-food" viewBox="-4 0 464 464"><path d="M408 464H264l-24-320h192zm0 0" fill="#f05d46"/><path d="M216 104h240v40H216zm0 0" fill="#dedede"/><path d="M320 0h32v104h-32zm0 0" fill="#f05d46"/><path d="M274.3 208.531l15.966-1.058 3.046 46.004-15.964 1.058zm0 0M272.02 176.566l15.957-1.14 1.144 16-15.957 1.14zm0 0" fill="#ff8b78"/><path d="M430.2 168l1.8-24H240l1.8 24zm0 0M352 432v-32h-32c16.25-.098 29.848-12.363 31.613-28.52 1.77-16.156-8.855-31.07-24.703-34.68l1.09-.8h24c-.027-59.48-46.578-108.547-105.977-111.695L264 464h56c17.672 0 32-14.328 32-32zm0 0" fill="#d64d37"/><path d="M0 400h320v32c0 17.672-14.328 32-32 32H32c-17.672 0-32-14.328-32-32zm0 0" fill="#f09e3e"/><path d="M240 400v32c0 17.672-14.328 32-32 32h80c17.672 0 32-14.328 32-32v-32zm0 0" fill="#f09032"/><path d="M112 224h96c61.855 0 112 50.145 112 112H0c0-61.855 50.145-112 112-112zm0 0" fill="#f09e3e"/><path d="M208 224h-80c61.855 0 112 50.145 112 112h80c0-61.855-50.145-112-112-112zm0 0" fill="#f09032"/><path d="M32 336h256c17.672 0 32 14.328 32 32s-14.328 32-32 32H32c-17.672 0-32-14.328-32-32s14.328-32 32-32zm0 0" fill="#8c563b"/><path d="M315.559 352A31.847 31.847 0 0 0 288 336H32a31.847 31.847 0 0 0-27.559 16zm0 0" fill="#874e35"/><path d="M112 336l96 64 88-64zm0 0" fill="#fc3"/><g fill="#c96e23"><path d="M176 280h16v16h-16zm0 0M128 280h16v16h-16zm0 0M80 280h16v16H80zm0 0M200 248h16v16h-16zm0 0M152 248h16v16h-16zm0 0M104 248h16v16h-16zm0 0M224 280h16v16h-16zm0 0"/></g><path d="M272.625 353L296 336H112l25.504 17zm0 0" fill="#ffb60c"/></symbol><symbol id="pxl-icon-logo" viewBox="0 0 512 512"><path d="M488.673 54.504c-13.842-14.917-33.609-22.854-58.725-23.592-63.802-2.068-110.335 29.133-138.302 92.708-3.788 8.61-2.725 18.267 2.842 25.83 5.64 7.661 14.675 11.595 24.173 10.518a70.235 70.235 0 0 1 7.86-.449c8.836 0 15.161 2.046 18.797 6.081 4.374 4.854 5.954 13.437 4.696 25.508l-.016.165c-1.358 15.513-12.102 39.287-31.928 70.656-3.069 4.851-5.884 9.42-8.366 13.452-14.614 23.73-19.728 31.236-30.005 31.236-11.115 0-19.775-35.196-27.019-68.186a10.123 10.123 0 0 0-.071-.301c-3.61-14.311-10.303-52.379-19.896-113.146-4.816-30.562-13.641-52.634-26.977-67.474-14.076-15.662-32.658-22.499-55.181-20.335-11.851 1.09-26.234 7.478-43.972 19.529-4.568 3.104-5.756 9.323-2.652 13.893 3.105 4.569 9.323 5.755 13.892 2.652 18.26-12.406 28.875-15.634 34.606-16.161 16.12-1.553 28.697 2.959 38.432 13.792 10.524 11.711 17.958 30.961 22.096 57.22 9.789 62.019 16.406 99.567 20.221 114.77 11.116 50.594 20.376 83.748 46.522 83.748 21.94 0 31.386-15.339 47.035-40.748 2.573-4.178 5.232-8.497 8.24-13.25 21.823-34.527 33.252-60.539 34.94-79.518 1.853-17.907-1.424-31.663-9.739-40.891-7.59-8.422-18.913-12.693-33.654-12.693a90.39 90.39 0 0 0-10.109.576c-3.301.373-5.17-1.624-5.816-2.501-.759-1.031-1.851-3.17-.642-5.919 24.697-56.144 63.745-82.553 119.377-80.77 19.864.584 34.477 6.212 44.679 17.206 13.299 14.33 19.275 38.494 17.764 71.82-.251 5.517 4.018 10.193 9.536 10.443 5.512.246 10.192-4.019 10.443-9.537 1.764-38.881-6.002-67.927-23.081-86.332zM85.27 85.065c-3.731-4.07-10.058-4.347-14.129-.614l-.024.021c-4.116 3.674-4.488 9.997-.819 14.119a9.981 9.981 0 0 0 7.476 3.356c2.355 0 4.721-.83 6.621-2.517l.26-.235c4.072-3.733 4.347-10.059.615-14.13z"/><path d="M502.22 130.392c-5.515-.257-10.195 4.017-10.445 9.534-2.438 53.418-36.742 126.468-94.144 200.461-33.573 43.723-62.225 74.285-87.589 93.434-24.726 18.668-46.939 27.362-69.904 27.362-23.585 0-55.861-22.695-74.928-73.392-8.124-29.834-16.245-59.671-24.364-89.504l-15.61-57.352c-16.605-59.793-34.867-87.642-57.471-87.642-4.253 0-9.817 1.391-34.938 18.487a2.49 2.49 0 0 1-3.365-.52L20.5 159.694a2.48 2.48 0 0 1 .328-3.369 6672.498 6672.498 0 0 0 28.434-25.255c4.118-3.68 4.474-10.001.794-14.121-3.68-4.118-10-4.475-14.121-.794a6699.794 6699.794 0 0 1-28.347 25.179c-8.86 7.825-10.133 21.27-2.899 30.609l8.962 11.567c7.258 9.368 20.625 11.478 30.429 4.805 16.741-11.392 22.634-14.252 24.429-14.96 4.328.671 19.414 7.957 37.443 72.882l15.597 57.303c8.16 29.984 16.321 59.969 24.487 89.954.08.295.174.586.28.872 9.928 26.579 24.309 48.78 41.588 64.202 16.339 14.585 34.889 22.617 52.235 22.617 52.983 0 103.208-37.263 173.326-128.576 59.844-77.138 95.668-154.325 98.289-211.769.251-5.519-4.017-10.196-9.534-10.448z"/><path d="M436.984 202.854c-5.038-2.268-10.958-.022-13.225 5.013l-.376.833c-2.272 5.034-.033 10.958 5 13.23a9.955 9.955 0 0 0 4.108.888c3.811 0 7.451-2.19 9.121-5.888l.384-.851c2.268-5.037.024-10.958-5.012-13.225zM419.689 238.733c-4.793-2.739-10.905-1.073-13.644 3.723-12.616 22.084-28.196 45.119-46.289 68.441l-.229.295c-3.341 4.398-2.484 10.671 1.914 14.013a9.952 9.952 0 0 0 6.041 2.038 9.988 9.988 0 0 0 7.972-3.951l.084-.108c18.687-24.088 34.793-47.91 47.873-70.806 2.741-4.796 1.074-10.905-3.722-13.645z"/></symbol><symbol id="pxl-icon-menu" viewBox="0 0 384.97 384.97"><path d="M12.03 120.303h360.909c6.641 0 12.03-5.39 12.03-12.03 0-6.641-5.39-12.03-12.03-12.03H12.03c-6.641 0-12.03 5.39-12.03 12.03s5.39 12.03 12.03 12.03zM372.939 180.455H12.03c-6.641 0-12.03 5.39-12.03 12.03s5.39 12.03 12.03 12.03h360.909c6.641 0 12.03-5.39 12.03-12.03s-5.389-12.03-12.03-12.03zM372.939 264.667H132.333c-6.641 0-12.03 5.39-12.03 12.03 0 6.641 5.39 12.03 12.03 12.03h240.606c6.641 0 12.03-5.39 12.03-12.03.001-6.641-5.389-12.03-12.03-12.03z"/></symbol></svg>