<svg height="464pt" viewBox="-4 0 464 464" width="464pt" xmlns="http://www.w3.org/2000/svg"><path d="m408 464h-144l-24-320h192zm0 0" fill="#f05d46"/><path d="m216 104h240v40h-240zm0 0" fill="#dedede"/><path d="m320 0h32v104h-32zm0 0" fill="#f05d46"/><path d="m274.300781 208.53125 15.964844-1.058594 3.046875 46.003906-15.964844 1.058594zm0 0" fill="#ff8b78"/><path d="m272.019531 176.566406 15.957031-1.140625 1.144532 16-15.957032 1.140625zm0 0" fill="#ff8b78"/><path d="m430.199219 168 1.800781-24h-192l1.800781 24zm0 0" fill="#d64d37"/><path d="m352 432v-32h-32c16.25-.097656 29.847656-12.363281 31.613281-28.519531 1.769531-16.15625-8.855469-31.070313-24.703125-34.679688l1.089844-.800781h24c-.027344-59.480469-46.578125-108.546875-105.976562-111.695312l17.976562 239.695312h56c17.671875 0 32-14.328125 32-32zm0 0" fill="#d64d37"/><path d="m0 400h320v32c0 17.671875-14.328125 32-32 32h-256c-17.671875 0-32-14.328125-32-32zm0 0" fill="#f09e3e"/><path d="m240 400v32c0 17.671875-14.328125 32-32 32h80c17.671875 0 32-14.328125 32-32v-32zm0 0" fill="#f09032"/><path d="m112 224h96c61.855469 0 112 50.144531 112 112h-320c0-61.855469 50.144531-112 112-112zm0 0" fill="#f09e3e"/><path d="m208 224h-80c61.855469 0 112 50.144531 112 112h80c0-61.855469-50.144531-112-112-112zm0 0" fill="#f09032"/><path d="m32 336h256c17.671875 0 32 14.328125 32 32s-14.328125 32-32 32h-256c-17.671875 0-32-14.328125-32-32s14.328125-32 32-32zm0 0" fill="#8c563b"/><path d="m315.558594 352c-5.664063-9.875-16.171875-15.976562-27.558594-16h-256c-11.386719.023438-21.894531 6.125-27.558594 16zm0 0" fill="#874e35"/><path d="m112 336 96 64 88-64zm0 0" fill="#fc3"/><g fill="#c96e23"><path d="m176 280h16v16h-16zm0 0"/><path d="m128 280h16v16h-16zm0 0"/><path d="m80 280h16v16h-16zm0 0"/><path d="m200 248h16v16h-16zm0 0"/><path d="m152 248h16v16h-16zm0 0"/><path d="m104 248h16v16h-16zm0 0"/><path d="m224 280h16v16h-16zm0 0"/></g><path d="m272.625 353 23.375-17h-184l25.503906 17zm0 0" fill="#ffb60c"/></svg>