<?xml version="1.0" encoding="iso-8859-1"?>
<!-- Generator: Adobe Illustrator 19.0.0, SVG Export Plug-In . SVG Version: 6.00 Build 0)  -->
<svg version="1.1" id="Capa_1" xmlns="http://www.w3.org/2000/svg" xmlns:xlink="http://www.w3.org/1999/xlink" x="0px" y="0px"
	 viewBox="0 0 512 512" style="enable-background:new 0 0 512 512;" xml:space="preserve">
<g>
	<g>
		<path d="M488.673,54.504c-13.842-14.917-33.609-22.854-58.725-23.592c-63.802-2.068-110.335,29.133-138.302,92.708
			c-3.788,8.61-2.725,18.267,2.842,25.83c5.64,7.661,14.675,11.595,24.173,10.518c2.635-0.298,5.28-0.449,7.86-0.449
			c8.836,0,15.161,2.046,18.797,6.081c4.374,4.854,5.954,13.437,4.696,25.508c-0.006,0.055-0.011,0.11-0.016,0.165
			c-1.358,15.513-12.102,39.287-31.928,70.656c-3.069,4.851-5.884,9.42-8.366,13.452c-14.614,23.73-19.728,31.236-30.005,31.236
			c-11.115,0-19.775-35.196-27.019-68.186c-0.022-0.101-0.046-0.201-0.071-0.301c-3.61-14.311-10.303-52.379-19.896-113.146
			c-4.816-30.562-13.641-52.634-26.977-67.474c-14.076-15.662-32.658-22.499-55.181-20.335c-11.851,1.09-26.234,7.478-43.972,19.529
			c-4.568,3.104-5.756,9.323-2.652,13.893c3.105,4.569,9.323,5.755,13.892,2.652c18.26-12.406,28.875-15.634,34.606-16.161
			c16.12-1.553,28.697,2.959,38.432,13.792c10.524,11.711,17.958,30.961,22.096,57.22c9.789,62.019,16.406,99.567,20.221,114.77
			c11.116,50.594,20.376,83.748,46.522,83.748c21.94,0,31.386-15.339,47.035-40.748c2.573-4.178,5.232-8.497,8.24-13.25
			c21.823-34.527,33.252-60.539,34.94-79.518c1.853-17.907-1.424-31.663-9.739-40.891c-7.59-8.422-18.913-12.693-33.654-12.693
			c-3.328,0-6.728,0.194-10.109,0.576c-3.301,0.373-5.17-1.624-5.816-2.501c-0.759-1.031-1.851-3.17-0.642-5.919
			C334.652,75.53,373.7,49.121,429.332,50.904c19.864,0.584,34.477,6.212,44.679,17.206c13.299,14.33,19.275,38.494,17.764,71.82
			c-0.251,5.517,4.018,10.193,9.536,10.443c5.512,0.246,10.192-4.019,10.443-9.537C513.518,101.955,505.752,72.909,488.673,54.504z"
			/>
	</g>
</g>
<g>
	<g>
		<path d="M85.27,85.065c-3.731-4.07-10.058-4.347-14.129-0.614l-0.024,0.021c-4.116,3.674-4.488,9.997-0.819,14.119
			c1.978,2.222,4.721,3.356,7.476,3.356c2.355,0,4.721-0.83,6.621-2.517l0.26-0.235C88.727,95.462,89.002,89.136,85.27,85.065z"/>
	</g>
</g>
<g>
	<g>
		<path d="M502.22,130.392c-5.515-0.257-10.195,4.017-10.445,9.534c-2.438,53.418-36.742,126.468-94.144,200.461
			c-33.573,43.723-62.225,74.285-87.589,93.434c-24.726,18.668-46.939,27.362-69.904,27.362c-23.585,0-55.861-22.695-74.928-73.392
			c-8.124-29.834-16.245-59.671-24.364-89.504l-15.61-57.352c-16.605-59.793-34.867-87.642-57.471-87.642
			c-4.253,0-9.817,1.391-34.938,18.487c-1.088,0.74-2.566,0.511-3.365-0.52l-8.962-11.566c-0.794-1.025-0.651-2.505,0.328-3.369
			c9.708-8.574,19.275-17.072,28.434-25.255c4.118-3.68,4.474-10.001,0.794-14.121c-3.68-4.118-10-4.475-14.121-0.794
			c-9.13,8.157-18.668,16.63-28.347,25.179c-8.86,7.825-10.133,21.27-2.899,30.609l8.962,11.567
			c7.258,9.368,20.625,11.478,30.429,4.805c16.741-11.392,22.634-14.252,24.429-14.96c4.328,0.671,19.414,7.957,37.443,72.882
			l15.597,57.303c8.16,29.984,16.321,59.969,24.487,89.954c0.08,0.295,0.174,0.586,0.28,0.872
			c9.928,26.579,24.309,48.78,41.588,64.202c16.339,14.585,34.889,22.617,52.235,22.617c52.983,0,103.208-37.263,173.326-128.576
			c59.844-77.138,95.668-154.325,98.289-211.769C512.005,135.321,507.737,130.644,502.22,130.392z"/>
	</g>
</g>
<g>
	<g>
		<path d="M436.984,202.854c-5.038-2.268-10.958-0.022-13.225,5.013l-0.376,0.833c-2.272,5.034-0.033,10.958,5,13.23
			c1.335,0.603,2.732,0.888,4.108,0.888c3.811,0,7.451-2.19,9.121-5.888l0.384-0.851
			C444.264,211.042,442.02,205.121,436.984,202.854z"/>
	</g>
</g>
<g>
	<g>
		<path d="M419.689,238.733c-4.793-2.739-10.905-1.073-13.644,3.723c-12.616,22.084-28.196,45.119-46.289,68.441l-0.229,0.295
			c-3.341,4.398-2.484,10.671,1.914,14.013c1.808,1.374,3.933,2.038,6.041,2.038c3.02,0,6.004-1.362,7.972-3.951l0.084-0.108
			c18.687-24.088,34.793-47.91,47.873-70.806C426.152,247.582,424.485,241.473,419.689,238.733z"/>
	</g>
</g>
<g>
</g>
<g>
</g>
<g>
</g>
<g>
</g>
<g>
</g>
<g>
</g>
<g>
</g>
<g>
</g>
<g>
</g>
<g>
</g>
<g>
</g>
<g>
</g>
<g>
</g>
<g>
</g>
<g>
</g>
</svg>
